<svg xmlns="http://www.w3.org/2000/svg" viewBox="0 0 25 25" height="25" width="25"><title>drinking-water-15.svg</title><rect fill="none" x="0" y="0" width="25" height="25"></rect><path fill="#fafafa" transform="translate(5 5)" d="M6,1A2,2,0,0,0,4,3V6.5a0.5,0.5,0,0,0,.5.5h2A0.5,0.5,0,0,0,7,6.5v-2A0.5,0.5,0,0,1,7.5,4H14V1H6Z" style="stroke-linejoin:round;stroke-miterlimit:4px;" stroke="#fafafa" stroke-width="6"></path><path fill="#fafafa" transform="translate(5 5)" d="M7,15H4a0.5,0.5,0,0,1-.48-0.38L2,8.62A0.5,0.5,0,0,1,2.5,8h6A0.5,0.5,0,0,1,9,8.62l-1.5,6A0.5,0.5,0,0,1,7,15ZM3.65,11l3.71,0L7.86,9H3.14Z" style="stroke-linejoin:round;stroke-miterlimit:4px;" stroke="#fafafa" stroke-width="6"></path><path fill="#e34b4b" transform="translate(5 5)" d="M6,1A2,2,0,0,0,4,3V6.5a0.5,0.5,0,0,0,.5.5h2A0.5,0.5,0,0,0,7,6.5v-2A0.5,0.5,0,0,1,7.5,4H14V1H6Z"></path><path fill="#e34b4b" transform="translate(5 5)" d="M7,15H4a0.5,0.5,0,0,1-.48-0.38L2,8.62A0.5,0.5,0,0,1,2.5,8h6A0.5,0.5,0,0,1,9,8.62l-1.5,6A0.5,0.5,0,0,1,7,15ZM3.65,11l3.71,0L7.86,9H3.14Z"></path></svg>