<svg xmlns="http://www.w3.org/2000/svg" viewBox="0 0 21 21" height="21" width="21"><title>farm-11.svg</title><rect fill="none" x="0" y="0" width="21" height="21"></rect><path fill="#fafafa" transform="translate(5 5)" d="M6,5L4,4,2,5,1,7v3l1.5,0V8h3v2L7,10V7ZM5,7H3V5.5H5V7Z" style="stroke-linejoin:round;stroke-miterlimit:4px;" stroke="#fafafa" stroke-width="6"></path><path fill="#fafafa" transform="translate(5 5)" d="M10,2A1,1,0,0,0,8,2v8h2V2Z" style="stroke-linejoin:round;stroke-miterlimit:4px;" stroke="#fafafa" stroke-width="6"></path><path fill="#e34b4b" transform="translate(5 5)" d="M6,5L4,4,2,5,1,7v3l1.5,0V8h3v2L7,10V7ZM5,7H3V5.5H5V7Z"></path><path fill="#e34b4b" transform="translate(5 5)" d="M10,2A1,1,0,0,0,8,2v8h2V2Z"></path></svg>