<svg xmlns="http://www.w3.org/2000/svg" viewBox="0 0 25 25" height="25" width="25"><title>farm-15.svg</title><rect fill="none" x="0" y="0" width="25" height="25"></rect><path fill="#fafafa" transform="translate(5 5)" d="M8,7L5,5,2,7,1,9v4H3V11H7v2H9V9ZM6,9H4V7H6V9Zm8,4H11V3.5a1.5,1.5,0,0,1,3,0V13Z" style="stroke-linejoin:round;stroke-miterlimit:4px;" stroke="#fafafa" stroke-width="6"></path><path fill="#e34b4b" transform="translate(5 5)" d="M8,7L5,5,2,7,1,9v4H3V11H7v2H9V9ZM6,9H4V7H6V9Zm8,4H11V3.5a1.5,1.5,0,0,1,3,0V13Z"></path></svg>