<svg xmlns="http://www.w3.org/2000/svg" viewBox="0 0 25 25" height="25" width="25"><title>school-15.svg</title><rect fill="none" x="0" y="0" width="25" height="25"></rect><path fill="#fafafa" transform="translate(5 5)" d="M11,13v-1h2v-1H9.5v-1H13V9h-2V8h2V7h-2V6h2V5H9.5V4H13V3h-2V2h2V1H8v13h5v-1H11z M6,11H2V1h4V11z M6,12l-2,2l-2-2H6z" style="stroke-linejoin:round;stroke-miterlimit:4px;" stroke="#fafafa" stroke-width="6"></path><path fill="#e34b4b" transform="translate(5 5)" d="M11,13v-1h2v-1H9.5v-1H13V9h-2V8h2V7h-2V6h2V5H9.5V4H13V3h-2V2h2V1H8v13h5v-1H11z M6,11H2V1h4V11z M6,12l-2,2l-2-2H6z"></path></svg>