<svg xmlns="http://www.w3.org/2000/svg" viewBox="0 0 21 21" height="21" width="21"><title>teahouse-11.svg</title><rect fill="none" x="0" y="0" width="21" height="21"></rect><path fill="#fafafa" transform="translate(5 5)" d="M9,4H2l1,3c0.3,0.4,0.6,0.7,1,1v2h3V8c0.4-0.3,0.7-0.6,1-1L9,4z M7,2L7,2H6L5,1V0l1,1h1l1,1l0,0L7,3V2z M4,3L3,2V1l1,1l1,1
	H4L4,3z" style="stroke-linejoin:round;stroke-miterlimit:4px;" stroke="#fafafa" stroke-width="6"></path><path fill="#e34b4b" transform="translate(5 5)" d="M9,4H2l1,3c0.3,0.4,0.6,0.7,1,1v2h3V8c0.4-0.3,0.7-0.6,1-1L9,4z M7,2L7,2H6L5,1V0l1,1h1l1,1l0,0L7,3V2z M4,3L3,2V1l1,1l1,1
	H4L4,3z"></path></svg>